<svg preserveAspectRatio="xMidYMid meet" viewBox="66.7 34.684 516.258 517.592" xmlns="http://www.w3.org/2000/svg" version="1.0" style="max-height: 500px" width="516.258" height="517.592">

<g stroke="none" fill="#ffffff" transform="translate(0.000000,667.000000) scale(0.100000,-0.100000)">
<path d="M4550 6283 c-39 -13 -133 -104 -677 -646 l-633 -631 -332 331 c-183&#10;182 -349 339 -368 349 -67 34 -181 14 -232 -43 -25 -27 -48 -87 -48 -124 0&#10;-89 5 -95 364 -456 l340 -343 -884 0 c-981 0 -947 2 -1083 -66 -98 -50 -201&#10;-154 -251 -255 -70 -142 -67 -79 -64 -1482 3 -1260 3 -1262 24 -1317 76 -198&#10;187 -314 364 -382 l85 -33 2085 0 2085 0 85 33 c177 68 288 184 364 382 21 55&#10;21 57 24 1317 3 1403 6 1340 -64 1482 -50 101 -153 205 -251 255 -136 68 -102&#10;66 -1083 66 l-884 0 636 638 c681 682 658 655 658 755 0 76 -57 149 -134 172&#10;-60 18 -68 18 -126 -2z m-1074 -1964 c297 -17 507 -64 624 -139 68 -44 153&#10;-137 188 -206 96 -191 132 -464 132 -1019 0 -1028 -130 -1270 -725 -1351 -326&#10;-44 -1557 -44 -1883 0 -391 53 -570 180 -656 466 -63 212 -80 398 -80 890 1&#10;463 14 628 71 840 34 130 83 221 163 301 132 134 335 195 717 218 198 12 1250&#10;12 1449 0z m1749 -590 c65 -24 133 -88 167 -156 33 -69 33 -188 -1 -257 -33&#10;-66 -91 -123 -158 -153 -48 -22 -65 -25 -137 -21 -57 3 -94 11 -123 26 -188&#10;97 -225 353 -72 500 82 79 211 104 324 61z m23 -801 c131 -62 200 -213 160&#10;-352 -27 -96 -115 -186 -211 -216 -58 -18 -163 -9 -217 19 -235 120 -235 435&#10;-1 556 80 41 174 39 269 -7z"/>
</g>
</svg>